<svg xmlns="http://www.w3.org/2000/svg" viewBox="0 0 24 24" fill="none">
  <rect width="24" height="24" rx="6" fill="#0f172a"/>
  <path d="M12 5C8.14 5 5 8.08 5 11.86C5 14.88 7.02 17.44 9.82 18.34C10.16 18.4 10.28 18.2 10.28 18.04V16.98C8.38 17.38 7.98 16.2 7.98 16.2C7.66 15.42 7.2 15.22 7.2 15.22C6.56 14.8 7.26 14.8 7.26 14.8C7.96 14.84 8.34 15.5 8.34 15.5C8.98 16.56 10.02 16.24 10.36 16.06C10.42 15.62 10.62 15.3 10.84 15.1C9.32 14.94 7.72 14.36 7.72 11.8C7.72 11.08 7.98 10.5 8.4 10.02C8.34 9.84 8.1 9.12 8.46 8.14C8.46 8.14 9.06 7.96 10.26 8.74C10.84 8.58 11.46 8.5 12.08 8.5C12.7 8.5 13.32 8.58 13.9 8.74C15.1 7.96 15.7 8.14 15.7 8.14C16.06 9.12 15.82 9.84 15.76 10.02C16.18 10.5 16.44 11.08 16.44 11.8C16.44 14.36 14.84 14.94 13.32 15.1C13.6 15.34 13.84 15.8 13.84 16.5V18.04C13.84 18.2 13.96 18.4 14.3 18.34C17.1 17.44 19.12 14.88 19.12 11.86C19.12 8.08 15.98 5 12.12 5H12Z" fill="#e2e8f0"/>
</svg>
