<svg xmlns="http://www.w3.org/2000/svg" viewBox="0 0 24 24" fill="none">
  <rect width="24" height="24" rx="6" fill="#0f172a"/>
  <path d="M8.2 10.2H10.3V17H8.2V10.2ZM9.25 7C9.95 7 10.45 7.5 10.45 8.16C10.45 8.84 9.95 9.34 9.25 9.34C8.57 9.34 8.05 8.84 8.05 8.16C8.05 7.5 8.57 7 9.25 7ZM11.7 10.2H13.72V11.14H13.76C14.04 10.62 14.74 10.08 15.78 10.08C17.94 10.08 18.35 11.46 18.35 13.26V17H16.24V13.7C16.24 12.92 16.22 11.92 15.16 11.92C14.08 11.92 13.92 12.72 13.92 13.64V17H11.7V10.2Z" fill="#e2e8f0"/>
</svg>
